# xmcd
#
# Track frame offsets:
#	150
#	7267
#	14420
#	22522
#	40967
#	49952
#	64345
#	70142
#	90720
#	104560
#	113582
#	121022
#	140632
#	152467
#	166882
#	174342
#	183775
#	188582
#	201140
#
# Disc length: 2777 seconds
#
# Revision: 1
# Processed by: cddbd v1.5.1PL0 Copyright (c) Steve Scherf et al.
# Submitted via: CDex 1.50Beta5
#
DISCID=f30ad713
DTITLE=チャーリー・コーセイ - ルパン三世/オリジナルBGMコレクション
DYEAR=1988
DGENRE=Soundtrack
TTITLE0=ルパン三世 パートI-オープニング・テーマ
TTITLE1=ムーディ・テーマ-ルパン三世 パートII
TTITLE2=アフロ・ロック・テーマ
TTITLE3=ジャパニーズ・トーン・オブ・ルパン
TTITLE4=ギャロップ・サンバ
TTITLE5=ディスコ・プレイズ・ルパン
TTITLE6=スキャット・テーマ
TTITLE7=ロック・テーマNO.1
TTITLE8=ツー・ビート・ロック-ルパン三世 パートII
TTITLE9=スロー・バラード-ルパン三世 パートI
TTITLE10=デキシー・ロック・マーチ
TTITLE11=タッチ・オブ・ジャパニーズ・トーン
TTITLE12=シャッフル・ロック-ルパン・ウォーキング
TTITLE13=ミディアム・サンバ
TTITLE14=アフロ”ルパン’68”
TTITLE15=サンバ・クレージー
TTITLE16=ナイス・ガイ・ルパン-ツー・ビート
TTITLE17=スロー・サンバ
TTITLE18=ルパン三世 パートII-エンディング・テーマ
EXTD=
EXTT0=
EXTT1=
EXTT2=
EXTT3=
EXTT4=
EXTT5=
EXTT6=
EXTT7=
EXTT8=
EXTT9=
EXTT10=
EXTT11=
EXTT12=
EXTT13=
EXTT14=
EXTT15=
EXTT16=
EXTT17=
EXTT18=
PLAYORDER=
